<?xml version="1.0" encoding="utf-8"?>
<!-- Generator: Adobe Illustrator 22.0.1, SVG Export Plug-In . SVG Version: 6.00 Build 0)  -->
<svg version="1.1" id="形状_1_1_" xmlns="http://www.w3.org/2000/svg" xmlns:xlink="http://www.w3.org/1999/xlink" x="0px"
	 y="0px" viewBox="0 0 512 512" style="enable-background:new 0 0 512 512;" xml:space="preserve">
<style type="text/css">
	.st0{fill:#FFFFFF;}
</style>
<g id="形状_1">
	<g>
		<path class="st0" d="M239.7,241.8c0,0-5.1-1-4.6,1.9c0,0,8.3,12.4,15.7,14.7c0,0,3.9,1.7,8,0c0,0,8.6-3.6,15.3-12.5
			c0,0,2.5-3.6-1.4-3.6C272.7,242.3,248.2,245.3,239.7,241.8z M429.6,272.3c6.7,1,17.5,8,17.5,8c2.3,1.6,13.1,6.1,13.1,6.1
			c12.7,4.6,20,3.3,23.9,1.3c1-7.8,1.7-15.8,1.9-23.8c-17.5,10.5-35.4-0.6-35.4-0.6c-3.7-1.7-14.1-7.4-14.1-7.4
			c-11.9-7.6-23.1-6.1-23.1-6.1c0-1.5-5.1-11.9-5.1-11.9c3.4-2.3,11.7-1.9,11.7-1.9c7.5,0.2,21.7,9,21.7,9
			c14.5,7.3,17.9,8.3,17.9,8.3c12.7,5.5,22.1-1.3,26.3-5.2C480.8,125.2,379.9,27.3,256,27.3c-123.8,0-224.7,97.8-229.9,220.3
			c4,3.9,13.6,11,26.5,5.4c0,0,3.4-1,17.9-8.3c0,0,14.2-8.8,21.7-9c0,0,8.3-0.3,11.7,1.9c0,0-5.1,10.4-5.1,11.9
			c0,0-11.2-1.5-23.1,6.1c0,0-10.4,5.8-14.1,7.4c0,0-18.1,11.2-35.6,0.5c0.2,8,0.8,16,1.9,23.8c3.9,2.1,11.2,3.6,24.1-1.2
			c0,0,10.8-4.4,13.1-6.1c0,0,10.8-7,17.5-8c0,0,5-0.8,7.7,0l-2.3,13c0,0-8.6,0.4-15,4.3c0,0-8.6,4.2-12.8,7.2c0,0-16,9.9-29.5,8
			c1.3,6.1,2.8,12,4.5,17.9c3.3,0.7,9,0.8,17.9-2.9c0,0,6.5-2.9,16.2-9.4c0,0,8.5-4.3,16.6-3.7l-1.3,11.8c0,0-7-0.2-13.7,4.6
			c0,0-15.4,12.3-31.1,13.8c2.2,5.9,4.6,11.7,7.2,17.4c3.2,0.1,9.1-0.9,16.4-7.1c0,0,7.9-6.2,10.8-7.1c0,0,5.3-2.9,11.7-1.8
			l2.7,11.6c0,0-9.6,1.9-14.3,5.6c0,0-7.7,5.6-11.3,7.5c0,0-3.8,2.8-9.9,3.2c3,5.7,6.3,11.2,9.8,16.6C70.7,377,88,365.7,95.8,369
			l-4.3-14.5c0,0,11.7,2.3,24.6-7.9l11.4-8.8c0,0-1.5-19.9,23.4-49.5c0,0,8.6-11.8,2.8-29.9c0,0-23.1-54.3,15.5-80
			c0,0-24.4,21.4-7.1,75.4c0,0,10.7,19.3-3.3,38.3c0,0-20.1,22.9-22.3,44.6c0,0-1,14.8,12.4,34.6c0,0-19.6,19.8-33,23.4
			c0,0-8.1,2.3-11.9,0l-4.6-13.5c0,0-8.1-1-16,3.3c0,0-8.3,4.8-13.2,8.3c3.4,4.7,7,9.2,10.7,13.6c4.1-3.2,14.1-10,21.5-8.2l6.4,9
			c0,0-13.6,0-20.3,7.6c4.5,4.8,9.2,9.3,14,13.7c2.9-2.4,7.4-5.4,12.4-5.6l7.6,8.5c0,0-5.8,2.6-9.2,6.2c7.5,6,15.4,11.5,23.7,16.5
			c6.1-16.7,18.5-32.3,18.5-32.3c8.9-11.7,7.9-31,7.9-31c13.7,16.5-6.9,41.6-6.9,41.6c-6.9,4.8-10.4,17.2-12.1,26
			c4.1,2.3,8.3,4.4,12.5,6.5c1.7-8.1,6.4-20.7,18.5-38.5c0,0,17.9-18.5,5.2-36.3c0,0-1.5-6.9-14-20.8c0,0-26.2-25.6-10.7-50.5
			c0,0,11.2-18,20.6-26.9c0,0,11.7-15.7,1.5-35.8c0,0-30.5-48,13.2-88.1c0,0-32.5,38.9-3.3,85.9c0,0,12.9,22.6-5.6,42.4
			c0,0-33.8,36.3-13.2,62.2c0,0,10.2,12.2,11.9,14.2c0,0,25.4,24.4,6.9,54.1c0,0-19.8,24.1-18.4,43.8c5.8,2.4,11.7,4.5,17.7,6.4
			c-1-8.6-0.2-22.9,10.4-39.8c0,0,23.4-30.7,9.9-51c0,0-4.8-10.4-15.5-21.3c0,0-26.2-24.9-2-56.4c0,0,26.2-24.4,14.7-47.7
			c0,0-39.1-64.8,7.6-97c0,0-32.2,32-6.1,79.2c0,0,21.3,38.3,3.6,54.1c0,0-30.4,34-13.8,56.1c0,0,11.2,14.7,13.5,17.3
			c0,0,24.1,25.1,6.1,55.4c0,0-12.7,22.1-13.2,23.9c0,0-6,9.8-2.1,31c6,1.5,12.2,2.8,18.4,3.8c-3.4-8.4-5.6-20.2-1.1-33.8
			c0,0,8.6-19,12.2-23.4c0,0,15.6-25.1,5.8-41.5c0,0-0.5-4.1-14.2-21.8c0,0-25.1-23.9-10.5-43.8c0,0,17.1-23.9,18.1-31.8
			c0,0,2.4-10.7,14.6-1.2c0,0,10.2,4.7,23.2-1.4c0,0,9.1-6.2,13,0.3c0,0,4.7,11.3,18.1,27.7c0,0,19.8,21-3.7,47.1
			c0,0-29.6,26.6-18.4,51.8c0,0,22.1,37.5,22.3,54.3c0,0-0.2,8.8-3.6,17.3c5.9-1,11.7-2.2,17.4-3.6c3.9-21.2-2.1-31-2.1-31
			c-0.5-1.8-13.2-23.9-13.2-23.9c-18-30.2,6.1-55.4,6.1-55.4c2.3-2.5,13.5-17.3,13.5-17.3c16.6-22.1-13.8-56.1-13.8-56.1
			c-17.8-15.7,3.6-54.1,3.6-54.1c26.2-47.2-6.1-79.2-6.1-79.2c46.7,32.2,7.6,97,7.6,97c-11.4,23.4,14.7,47.7,14.7,47.7
			c24.1,31.5-2,56.4-2,56.4c-10.7,10.9-15.5,21.3-15.5,21.3c-13.5,20.3,9.9,51,9.9,51c10.5,16.8,11.3,31.1,10.4,39.7
			c6-1.9,11.9-4,17.7-6.4c1.3-19.7-18.4-43.8-18.4-43.8c-18.5-29.7,6.9-54.1,6.9-54.1c1.8-2,11.9-14.2,11.9-14.2
			c20.6-25.9-13.2-62.2-13.2-62.2c-18.5-19.8-5.6-42.4-5.6-42.4c29.2-46.9-3.3-85.9-3.3-85.9c43.7,40.1,13.2,88.1,13.2,88.1
			c-10.2,20.1,1.5,35.8,1.5,35.8c9.4,8.9,20.6,26.9,20.6,26.9c15.5,24.9-10.7,50.5-10.7,50.5c-12.4,14-14,20.8-14,20.8
			c-12.7,17.8,5.2,36.3,5.2,36.3c12,17.7,16.8,30.4,18.5,38.4c4.2-2,8.4-4.2,12.5-6.5c-1.7-8.8-5.2-21.1-12.1-25.9
			c0,0-20.6-25.1-6.9-41.6c0,0-1,19.3,7.9,31c0,0,12.3,15.6,18.5,32.2c8.2-5,16.1-10.5,23.6-16.5c-3.4-3.6-9.1-6.1-9.1-6.1l7.6-8.5
			c5,0.1,9.4,3.1,12.3,5.5c4.9-4.4,9.6-9,14-13.7c-6.8-7.5-20.3-7.5-20.3-7.5l6.3-9c7.4-1.8,17.2,4.9,21.4,8.1
			c3.7-4.4,7.3-8.9,10.7-13.6c-5-3.5-13.1-8.2-13.1-8.2c-7.9-4.3-16-3.3-16-3.3l-4.6,13.5c-3.8,2.3-11.9,0-11.9,0
			c-13.5-3.6-33-23.4-33-23.4c13.5-19.8,12.4-34.6,12.4-34.6c-2.3-21.7-22.3-44.6-22.3-44.6c-14-19-3.3-38.3-3.3-38.3
			c17.3-54.1-7.1-75.4-7.1-75.4c38.6,25.6,15.5,80,15.5,80c-5.8,18,2.8,29.9,2.8,29.9c24.9,29.6,23.4,49.5,23.4,49.5l11.4,8.8
			c12.9,10.2,24.6,7.9,24.6,7.9l-4.3,14.5c7.7-3.3,24.9,7.9,32.8,13.5c3.5-5.3,6.7-10.8,9.7-16.5c-6.1-0.4-9.8-3.2-9.8-3.2
			c-3.6-1.9-11.3-7.5-11.3-7.5c-4.7-3.7-14.4-5.6-14.4-5.6l2.7-11.6c6.3-1.1,11.7,1.8,11.7,1.8c2.9,0.9,10.8,7.1,10.8,7.1
			c7.2,6.1,13,7.1,16.2,7.1c2.6-5.7,5.1-11.5,7.2-17.4c-15.7-1.6-30.9-13.8-30.9-13.8c-6.7-4.8-13.7-4.6-13.7-4.6l-1.3-11.8
			c8.1-0.6,16.6,3.7,16.6,3.7c9.8,6.5,16.3,9.4,16.3,9.4c8.6,3.7,14.3,3.7,17.7,3c1.7-5.9,3.2-11.8,4.5-17.9
			c-13.4,1.8-29.3-8.1-29.3-8.1c-4.3-2.9-12.8-7.2-12.8-7.2c-6.3-3.9-15-4.3-15-4.3l-2.3-13C424.7,271.5,429.6,272.3,429.6,272.3z
			 M115.1,218.2c-17-3.6-42.9,9.4-42.9,9.4c-27.2,15.2-37.3,2.5-37.3,2.5l21.1-32.5C77.7,162.8,70.4,142,70.4,142
			c-0.8-8.9,5.6-5.3,5.6-5.3c24.4,14.7,24.6,43.4,24.6,43.4c44.2-24.6,58.1-5.3,58.1-5.3C139.7,183.6,115.1,218.2,115.1,218.2z
			 M213.1,194.1c0,0,4.9-7.3,18.1-1.2c0,0,8.1,4.6,7.6,8.5c0,0-0.2,3.4-5.6,0c0,0-9.3-4.1-14.2-0.2c0,0-2.3,4-6.4,0.1
			C212.6,201.3,209.7,197.6,213.1,194.1z M298.4,184.8c0,0-20.3-4.9-29.7,1.8c0,0-12.4,6.5-5.9,29.1c0,0,0.9,4.5,4.8-0.9
			c0.1-0.1,0.1-0.2,0.2-0.3c4.1-5.8,6.3-6.3,10.8-3.5c0,0,8.2,2.3,14.5-0.2c0,0,1.7-4,4.6,0.6c0,0,1,1.9,1.9,2.7c0,0,3.8,5.8,0,15.2
			c0,0-2,4.5-5.2,14.6c0,0-8.3,21-26.6,30.6c0,0-10.6,5.4-25.2,0c0,0-17.8-8.1-25.6-26.7c0,0-10.2-20.1-7.9-32c0,0,2.8-9.2,9.2-6.9
			c0,0,5.6,3.9,14.7,0.8c0,0,6.7-3,8.6,1.8c0,0,2.2,4.8,4.5-0.8c0,0,3.2-7.1,0.3-17.9c0,0-1.1-9.3-17.9-9.7c0,0-8,0.2-11,0.9
			c0,0-8.3,2.8-2.7-8.6c0,0,8.7-20.8,41.1-20.8c0,0,33-1.7,43.7,23C299.5,177.7,303.6,186.3,298.4,184.8z M298.4,201.3
			c-4.1,3.9-6.4-0.1-6.4-0.1c-4.9-4-14.2,0.2-14.2,0.2c-5.4,3.4-5.6,0-5.6,0c-0.5-3.9,7.6-8.5,7.6-8.5c13.2-6.1,18.1,1.2,18.1,1.2
			C301.3,197.6,298.4,201.3,298.4,201.3z M343.1,165.4c0.2,4.8-6.1,1-6.1,1c-87.6-41.6-159.6,0-159.6,0c-9.9,6.2-8.8-4.8-8.8-4.8
			c-5.5-23-17.5-37.3-17.5-37.3c-7.8-7.1,0.9-5.7,0.9-5.7c18,2,32.8,11.6,32.8,11.6c2.5-11.7-9.3-27.9-9.3-27.9
			c-4.6-6,5.7-4.6,5.7-4.6c21.4,7.6,36.2,17.3,44.9,24.2l10.9-28.8l-24.9-21.8l32.2-0.9l11.3-28.1l11.5,27.4l32.5,1.5l-24.9,22.2
			l10.9,26c21.1-16.2,46.2-22.3,46.2-22.3c8.5-1.3,3.3,5.5,3.3,5.5c-9,16-7,26.2-7,26.2c15.6-8.5,31-10.8,31-10.8
			c9.5-1.9,2.1,5.2,2.1,5.2C342.6,143.9,343.1,165.4,343.1,165.4z M397.1,218.2c0,0-24.6-34.5-43.7-43.4c0,0,14-19.3,58.1,5.3
			c0,0,0.3-28.7,24.6-43.4c0,0,6.4-3.6,5.6,5.3c0,0-7.4,20.8,14.5,55.6l21.1,32.5c0,0-10.2,12.7-37.3-2.5
			C440.1,227.6,414.2,214.6,397.1,218.2z M231.2,126.1c3,2.7,4.5,4.4,4.5,4.4c12.2-2.5,38.6-0.9,38.6-0.9c1.2-1.4,2.5-2.7,3.8-3.9
			l-22.5-18.5L231.2,126.1z M246.3,228.8c-3,3.2,0,4.8,0,4.8c6.3,2.7,16.7,0,16.7,0c5.8-3.7,3-5.2,3-5.2c-2.9-3-9.9-3-9.9-3
			C251.2,225.1,246.3,228.8,246.3,228.8z"/>
	</g>
</g>
</svg>
